HIERARCHY
ROOT Hips
{
	OFFSET	0.000000	0.000000	0.000000
	CHANNELS 6 Xposition Yposition Zposition Zrotation Xrotation Yrotation
	JOINT LeftUpLeg
	{
		OFFSET	12.830505	-7.049846	-1.643436
		CHANNELS 3 Zrotation Xrotation Yrotation
		JOINT LeftLeg
		{
			OFFSET	0.620834	-39.957500	-1.919341
			CHANNELS 3 Zrotation Xrotation Yrotation
			JOINT LeftFoot
			{
				OFFSET	-0.413890	-44.704761	-3.870325
				CHANNELS 3 Zrotation Xrotation Yrotation
				JOINT LeftFootHeel
				{
					OFFSET	0.164738	-8.918193	-6.555130
					CHANNELS 3 Zrotation Xrotation Yrotation
					End Site
					{
						OFFSET	-0.604053	0.000000	21.044330
					}
				}
			}
		}
	}
	JOINT RightUpLeg
	{
		OFFSET	-12.830505	-7.049846	-1.643436
		CHANNELS 3 Zrotation Xrotation Yrotation
		JOINT RightLeg
		{
			OFFSET	-0.620834	-39.957500	-1.919341
			CHANNELS 3 Zrotation Xrotation Yrotation
			JOINT RightFoot
			{
				OFFSET	0.413890	-44.704761	-3.870325
				CHANNELS 3 Zrotation Xrotation Yrotation
				JOINT RightFootHeel
				{
					OFFSET	-0.164738	-8.918193	-6.555130
					CHANNELS 3 Zrotation Xrotation Yrotation
					End Site
					{
						OFFSET	0.604053	0.000000	21.044330
					}
				}
			}
		}
	}
	JOINT Spine
	{
		OFFSET	0.000000	12.498170	1.820647
		CHANNELS 3 Zrotation Xrotation Yrotation
		JOINT Spine1
		{
			OFFSET	0.000000	7.620000	0.000000
			CHANNELS 3 Zrotation Xrotation Yrotation
			JOINT LeftShoulder
			{
				OFFSET	9.167800	29.136339	-5.551221
				CHANNELS 3 Zrotation Xrotation Yrotation
				JOINT LeftArm
				{
					OFFSET	12.133453	-3.880866	1.461963
					CHANNELS 3 Zrotation Xrotation Yrotation
					JOINT LeftForeArm
					{
						OFFSET	2.507115	-31.664908	-1.069404
						CHANNELS 3 Zrotation Xrotation Yrotation
						JOINT LeftHand
						{
							OFFSET	4.116172	-24.512624	5.009439
							CHANNELS 3 Zrotation Xrotation Yrotation
							End Site
							{
								OFFSET	-0.213136	-10.931856	2.182134
							}
						}
					}
				}
			}
			JOINT RightShoulder
			{
				OFFSET	-9.167800	29.136339	-5.551221
				CHANNELS 3 Zrotation Xrotation Yrotation
				JOINT RightArm
				{
					OFFSET	-12.133453	-3.880866	1.461963
					CHANNELS 3 Zrotation Xrotation Yrotation
					JOINT RightForeArm
					{
						OFFSET	-2.507115	-31.664908	-1.069404
						CHANNELS 3 Zrotation Xrotation Yrotation
						JOINT RightHand
						{
							OFFSET	-4.116172	-24.512624	5.009439
							CHANNELS 3 Zrotation Xrotation Yrotation
							End Site
							{
								OFFSET	0.213136	-10.931856	2.182134
							}
						}
					}
				}
			}
			JOINT Neck
			{
				OFFSET	0.000000	32.926272	-3.635654
				CHANNELS 3 Zrotation Xrotation Yrotation
				JOINT Head
				{
					OFFSET	0.000000	12.481178	4.646143
					CHANNELS 3 Zrotation Xrotation Yrotation
					End Site
					{
						OFFSET	0.000000	17.715204	-2.222063
					}
				}
			}
		}
	}
}
MOTION
Frames:     20
Frame Time: 0.016667
0.000000	103.183410	0.000000	-0.054852	-0.094352	-0.261820	-0.072789	-0.031566	-0.156874	0.080355	0.226826	0.016112	0.046482	-0.100325	0.402608	0.	0.	0.	0.078363	-0.096519	0.263424	-0.083126	0.307271	0.093333	0.059872	-0.116139	-0.094665	0.	0.	0.	0.000000	0.000000	-0.000001	0.258276	0.871799	0.602274	-0.248536	-1.183419	-1.082373	0.787035	0.052322	-1.680416	-0.195542	0.510854	-1.038125	-1.480372	-0.701351	0.565966	0.635296	-1.169192	0.050573	-0.824514	0.936409	1.191754	0.177822	-0.989167	1.520415	1.771543	-0.447300	0.418889	0.511450	-0.863446	-0.244156	-0.310779	0.259944	-0.296147	
-0.002762	103.183022	-0.001824	-0.053568	-0.093597	-0.246308	-0.082591	-0.057242	-0.167334	0.100565	0.267150	0.011568	0.034726	-0.115694	0.402015	0.	0.	0.	0.078921	-0.101228	0.270716	-0.084849	0.311239	0.070544	0.059872	-0.116139	-0.094665	0.	0.	0.	0.000000	0.000000	0.000001	0.257232	0.870969	0.586767	-0.250662	-1.182362	-1.080021	0.785736	0.046723	-1.636960	-0.192727	0.514550	-1.073178	-1.480415	-0.692626	0.561681	0.635296	-1.169192	0.050573	-0.824514	0.936409	1.191754	0.177822	-0.989167	1.520415	1.768773	-0.447288	0.424729	0.502523	-0.858508	-0.221026	-0.289379	0.297013	-0.324845	
-0.000412	103.183061	-0.006475	-0.052314	-0.092866	-0.231129	-0.088828	-0.072524	-0.179580	0.107448	0.284271	0.008702	0.032781	-0.118235	0.401910	0.	0.	0.	0.078745	-0.104302	0.269012	-0.085867	0.313583	0.057078	0.059872	-0.116139	-0.094665	0.	0.	0.	0.000000	0.000000	0.000000	0.256212	0.870165	0.571592	-0.259393	-1.178023	-1.070351	0.791992	0.039029	-1.612644	-0.192556	0.514970	-1.076486	-1.480951	-0.687183	0.547718	0.635296	-1.169192	0.050573	-0.824514	0.936409	1.191754	0.177822	-0.989167	1.520415	1.768773	-0.447288	0.424729	0.460767	-0.868244	-0.205835	-0.250882	0.344073	-0.332988	
0.003168	103.183235	-0.012354	-0.051090	-0.092152	-0.216295	-0.094644	-0.086603	-0.191704	0.111994	0.297664	0.005958	0.032781	-0.118235	0.401910	0.	0.	0.	0.078044	-0.106179	0.260792	-0.086373	0.314733	0.050467	0.059872	-0.116139	-0.094665	0.	0.	0.	0.000000	0.000000	0.000000	0.255215	0.869380	0.556761	-0.268590	-1.173458	-1.060177	0.799206	0.031760	-1.595330	-0.192422	0.515312	-1.079204	-1.482923	-0.681966	0.545978	0.635296	-1.169192	0.050573	-0.824514	0.936409	1.191754	0.177822	-0.989167	1.520415	1.778027	-0.454538	0.429338	0.485482	-0.838781	-0.206227	-0.289179	0.334313	-0.316650	
0.005699	103.183274	-0.015559	-0.049928	-0.091465	-0.202284	-0.098978	-0.096529	-0.203864	0.115123	0.306929	0.004084	0.032781	-0.118235	0.401910	0.	0.	0.	0.076859	-0.106890	0.246783	-0.086373	0.314733	0.050467	0.059872	-0.116139	-0.094665	0.	0.	0.	0.000000	0.000000	-0.000002	0.254268	0.868626	0.542752	-0.277547	-1.169020	-1.050273	0.807786	0.026734	-1.599186	-0.203264	0.515362	-1.062258	-1.476313	-0.678199	0.550393	0.635296	-1.169192	0.050573	-0.825053	0.936763	1.195379	0.178291	-0.989542	1.516797	1.792048	-0.465519	0.436334	0.494628	-0.803617	-0.201546	-0.316820	0.307885	-0.302137	
0.005816	103.183158	-0.014050	-0.049388	-0.091152	-0.195710	-0.099529	-0.096831	-0.210435	0.115123	0.306929	0.004084	0.032781	-0.118235	0.401910	0.	0.	0.	0.076307	-0.107213	0.240213	-0.086373	0.314733	0.050467	0.059872	-0.116139	-0.094665	0.	0.	0.	0.000000	-0.000001	0.000001	0.253828	0.868283	0.536182	-0.282052	-1.166784	-1.045295	0.812333	0.024510	-1.604225	-0.207274	0.514889	-1.051852	-1.474742	-0.676151	0.554263	0.635296	-1.169192	0.050573	-0.826239	0.937531	1.203328	0.179323	-0.990360	1.508871	1.798522	-0.470590	0.439567	0.499466	-0.787148	-0.199592	-0.331056	0.295846	-0.294357	
0.005873	103.183090	-0.013308	-0.049121	-0.090994	-0.192491	-0.099800	-0.096984	-0.213655	0.115123	0.306929	0.004084	0.032781	-0.118235	0.401910	0.	0.	0.	0.076035	-0.107375	0.236993	-0.086373	0.314733	0.050467	0.059872	-0.116139	-0.094665	0.	0.	0.	0.000000	0.000000	0.000000	0.253611	0.868110	0.532963	-0.292704	-1.161511	-1.033526	0.810099	0.019388	-1.601521	-0.195744	0.513260	-1.047703	-1.479783	-0.670331	0.574787	0.635296	-1.169192	0.050573	-0.830694	0.940422	1.233154	0.183199	-0.993440	1.479123	1.802130	-0.476693	0.452319	0.502499	-0.755639	-0.193243	-0.364831	0.278841	-0.269003	
0.005873	103.183090	-0.013308	-0.049121	-0.090994	-0.192491	-0.099800	-0.096984	-0.213655	0.115123	0.306929	0.004084	0.032781	-0.118235	0.401910	0.	0.	0.	0.076035	-0.107375	0.236993	-0.086373	0.314733	0.050467	0.059872	-0.116139	-0.094665	0.	0.	0.	0.000000	0.000000	0.000000	0.253611	0.868110	0.532963	-0.292704	-1.161511	-1.033526	0.793541	0.019956	-1.586655	-0.180452	0.511509	-1.045900	-1.482038	-0.666331	0.579440	0.635296	-1.169192	0.050573	-0.833451	0.942209	1.251587	0.183410	-1.029671	1.467880	1.796017	-0.442638	0.463156	0.500790	-0.741313	-0.189063	-0.384236	0.274458	-0.251465	
0.005873	103.183090	-0.013308	-0.049121	-0.090994	-0.192491	-0.099800	-0.096984	-0.213655	0.115123	0.306929	0.004084	0.032781	-0.118235	0.401910	0.	0.	0.	0.076035	-0.107375	0.236993	-0.086373	0.314733	0.050467	0.059872	-0.116139	-0.094665	0.	0.	0.	0.000000	0.000000	0.000000	0.253611	0.868110	0.532963	-0.292704	-1.161511	-1.033526	0.778052	0.021720	-1.584120	-0.166126	0.508702	-1.033906	-1.486991	-0.662862	0.581394	0.635296	-1.169192	0.050573	-0.834989	0.943206	1.261849	0.182040	-1.072839	1.463290	1.803622	-0.407207	0.469231	0.488035	-0.733736	-0.181876	-0.385094	0.273372	-0.244765	
0.005873	103.183090	-0.013308	-0.049121	-0.090994	-0.192491	-0.099800	-0.096984	-0.213655	0.115123	0.306929	0.004084	0.032781	-0.118235	0.401910	0.	0.	0.	0.076035	-0.107375	0.236993	-0.086373	0.314733	0.050467	0.059872	-0.116139	-0.094665	0.	0.	0.	0.000000	0.000000	0.000000	0.253611	0.868110	0.532963	-0.292704	-1.161511	-1.033526	0.763438	0.023732	-1.584949	-0.151746	0.506759	-1.029802	-1.502375	-0.660633	0.591127	0.635296	-1.169192	0.050573	-0.834989	0.943206	1.261849	0.181072	-1.087801	1.464989	1.818127	-0.402638	0.473606	0.454338	-0.742507	-0.169827	-0.351369	0.282328	-0.257190	
0.005873	103.183090	-0.013308	-0.049121	-0.090994	-0.192491	-0.099800	-0.096984	-0.213655	0.115123	0.306929	0.004084	0.032781	-0.118235	0.401910	0.	0.	0.	0.076035	-0.107375	0.236993	-0.086373	0.314733	0.050467	0.059872	-0.116139	-0.094665	0.	0.	0.	0.000000	0.000000	0.000000	0.253611	0.868110	0.532963	-0.292704	-1.161511	-1.033526	0.749916	0.025594	-1.585725	-0.138185	0.505269	-1.029026	-1.508002	-0.659226	0.605356	0.635296	-1.169192	0.050573	-0.833206	0.933675	1.263011	0.179258	-1.081623	1.464151	1.832241	-0.410080	0.479982	0.442303	-0.745656	-0.165521	-0.339321	0.285538	-0.261634	
0.005873	103.183090	-0.013308	-0.049121	-0.090994	-0.192491	-0.099800	-0.096984	-0.213655	0.115123	0.306929	0.004084	0.032781	-0.118235	0.401910	0.	0.	0.	0.076035	-0.107375	0.236993	-0.086373	0.314733	0.050467	0.059872	-0.116139	-0.094665	0.	0.	0.	0.000000	0.000000	0.000000	0.253611	0.868110	0.532963	-0.292704	-1.161511	-1.033526	0.749916	0.025594	-1.585725	-0.138185	0.505269	-1.029026	-1.508002	-0.659226	0.605356	0.635296	-1.169192	0.050573	-0.833023	0.925192	1.274782	0.178080	-1.088082	1.454054	1.839241	-0.399705	0.480614	0.442303	-0.745656	-0.165521	-0.339321	0.285538	-0.261634	
0.005873	103.183090	-0.013308	-0.049121	-0.090994	-0.192491	-0.099800	-0.096984	-0.213655	0.115123	0.306929	0.004084	0.032781	-0.118235	0.401910	0.	0.	0.	0.076035	-0.107375	0.236993	-0.086373	0.314733	0.050467	0.059872	-0.116139	-0.094665	0.	0.	0.	0.000000	0.000000	0.000000	0.253611	0.868110	0.532963	-0.292704	-1.161511	-1.033526	0.743554	0.026472	-1.586088	-0.131804	0.504567	-1.028660	-1.512274	-0.656954	0.631498	0.635296	-1.169192	0.050573	-0.835201	0.926605	1.289273	0.178920	-1.105501	1.441419	1.841291	-0.388775	0.478629	0.442303	-0.745656	-0.165521	-0.339321	0.285538	-0.261634	
0.005873	103.183090	-0.013308	-0.049121	-0.090994	-0.192491	-0.099800	-0.096984	-0.213655	0.115123	0.306929	0.004084	0.032781	-0.118235	0.401910	0.	0.	0.	0.076035	-0.107375	0.236993	-0.086373	0.314733	0.050467	0.059872	-0.116139	-0.094665	0.	0.	0.	0.000000	0.000000	0.000000	0.253611	0.868110	0.532963	-0.292704	-1.161511	-1.033526	0.743554	0.026472	-1.586088	-0.131804	0.504567	-1.028660	-1.513358	-0.656389	0.638104	0.635296	-1.169192	0.050573	-0.835723	0.926938	1.292733	0.179142	-1.109298	1.438364	1.829500	-0.404261	0.472389	0.442303	-0.745656	-0.165521	-0.339321	0.285538	-0.261634	
0.005873	103.183090	-0.013308	-0.049121	-0.090994	-0.192491	-0.099800	-0.096984	-0.213655	0.115123	0.306929	0.004084	0.032781	-0.118235	0.401910	0.	0.	0.	0.076035	-0.107375	0.236993	-0.086373	0.314733	0.050467	0.059872	-0.116139	-0.094665	0.	0.	0.	0.000000	0.000000	0.000000	0.253611	0.868110	0.532963	-0.292704	-1.161511	-1.033526	0.743554	0.026472	-1.586088	-0.131804	0.504567	-1.028660	-1.515987	-0.654994	0.654168	0.635296	-1.169192	0.050573	-0.835723	0.926938	1.292733	0.179142	-1.109298	1.438364	1.825434	-0.410602	0.470473	0.459263	-0.755056	-0.124819	-0.356098	0.295142	-0.302055	
0.005873	103.183090	-0.013308	-0.049121	-0.090994	-0.192491	-0.099800	-0.096984	-0.213655	0.115123	0.306929	0.004084	0.032781	-0.118235	0.401910	0.	0.	0.	0.076035	-0.107375	0.236993	-0.086373	0.314733	0.050467	0.059872	-0.116139	-0.094665	0.	0.	0.	0.000000	0.000000	0.000000	0.253611	0.868110	0.532963	-0.292704	-1.161511	-1.033526	0.743554	0.026472	-1.586088	-0.131804	0.504567	-1.028660	-1.515987	-0.654994	0.654168	0.635296	-1.169192	0.050573	-0.836245	0.927279	1.296218	0.179589	-1.109661	1.434888	1.821566	-0.416649	0.468623	0.470589	-0.761330	-0.097631	-0.367296	0.301565	-0.329054	
0.005873	103.183090	-0.013308	-0.049121	-0.090994	-0.192491	-0.099800	-0.096984	-0.213655	0.115123	0.306929	0.004084	0.032781	-0.118235	0.401910	0.	0.	0.	0.076035	-0.107375	0.236993	-0.086373	0.314733	0.050467	0.059872	-0.116139	-0.094665	0.	0.	0.	0.000000	0.000000	0.000000	0.253611	0.868110	0.532963	-0.292704	-1.161511	-1.033526	0.743554	0.026472	-1.586088	-0.131804	0.504567	-1.028660	-1.515987	-0.654994	0.654168	0.635296	-1.169192	0.050573	-0.836245	0.927279	1.296218	0.179589	-1.109661	1.434888	1.821566	-0.416649	0.468623	0.473491	-0.762933	-0.090685	-0.370163	0.303205	-0.335952	
0.005873	103.183090	-0.013308	-0.049121	-0.090994	-0.192491	-0.099800	-0.096984	-0.213655	0.115123	0.306929	0.004084	0.032781	-0.118235	0.401910	0.	0.	0.	0.076035	-0.107375	0.236993	-0.086373	0.314733	0.050467	0.059872	-0.116139	-0.094665	0.	0.	0.	0.000000	0.000000	0.000000	0.253611	0.868110	0.532963	-0.292704	-1.161511	-1.033526	0.743554	0.026472	-1.586088	-0.131804	0.504567	-1.028660	-1.516155	-0.658467	0.654437	0.635296	-1.169192	0.050573	-0.841289	0.930548	1.329827	0.186640	-1.071668	1.398877	1.813789	-0.457942	0.481020	0.476386	-0.764536	-0.083737	-0.373024	0.304850	-0.342851	
0.005873	103.183090	-0.013308	-0.049121	-0.090994	-0.192491	-0.099800	-0.096984	-0.213655	0.115123	0.306929	0.004084	0.032781	-0.118235	0.401910	0.	0.	0.	0.076035	-0.107375	0.236993	-0.086373	0.314733	0.050467	0.059872	-0.116139	-0.094665	0.	0.	0.	0.000000	0.000000	0.000000	0.253611	0.868110	0.532963	-0.292704	-1.161511	-1.033526	0.743554	0.026472	-1.586088	-0.131804	0.504567	-1.028660	-1.516514	-0.665968	0.655015	0.635296	-1.169192	0.050573	-0.842537	0.931356	1.338135	0.189129	-1.050951	1.388115	1.810508	-0.479384	0.487089	0.476386	-0.764536	-0.083737	-0.373024	0.304850	-0.342851	
0.005873	103.183090	-0.013308	-0.049121	-0.090994	-0.192491	-0.099800	-0.096984	-0.213655	0.115123	0.306929	0.004084	0.032781	-0.118235	0.401910	0.	0.	0.	0.076035	-0.107375	0.236993	-0.086373	0.314733	0.050467	0.059872	-0.116139	-0.094665	0.	0.	0.	0.000000	0.000000	0.000000	0.253611	0.868110	0.532963	-0.292704	-1.161511	-1.033526	0.743554	0.026472	-1.586088	-0.131804	0.504567	-1.028660	-1.516906	-0.674115	0.655662	0.635296	-1.169192	0.050573	-0.844817	0.932827	1.353330	0.192230	-1.035227	1.370976	1.808981	-0.496580	0.489640	0.463883	-0.766871	-0.079032	-0.360498	0.307232	-0.347709	
